<?xml version="1.0" encoding="UTF-8"?>
<svg xmlns="http://www.w3.org/2000/svg" xmlns:xlink="http://www.w3.org/1999/xlink" width="375pt" height="374.999991pt" viewBox="0 0 375 374.999991" version="1.2">
<defs>
<clipPath id="clip1">
  <path d="M 23 9.546875 L 352 9.546875 L 352 196 L 23 196 Z M 23 9.546875 "/>
</clipPath>
<clipPath id="clip2">
  <path d="M 291 321 L 375 321 L 375 374.796875 L 291 374.796875 Z M 291 321 "/>
</clipPath>
<clipPath id="clip3">
  <path d="M 0 321 L 84 321 L 84 374.796875 L 0 374.796875 Z M 0 321 "/>
</clipPath>
</defs>
<g id="surface1">
<g clip-path="url(#clip1)" clip-rule="nonzero">
<path style="fill:none;stroke-width:40;stroke-linecap:round;stroke-linejoin:round;stroke:rgb(1.568604%,0.779724%,0%);stroke-opacity:1;stroke-miterlimit:10;" d="M 1262.699658 2128.710428 C 1262.699658 2660.103138 1649.20333 3090.893192 2125.999986 3090.893192 C 2602.796643 3090.893192 2989.300314 2660.103138 2989.300314 2128.710428 " transform="matrix(0.185507,0,0,-0.185406,-206.888332,586.343817)"/>
</g>
<path style=" stroke:none;fill-rule:nonzero;fill:rgb(100%,87.449646%,9.01947%);fill-opacity:1;" d="M 256.285156 70.007812 C 256.285156 70.007812 250.683594 65.445312 245.636719 62.125 C 224.621094 48.257812 204.992188 43.550781 187.5 43.863281 C 170.023438 43.550781 150.378906 48.257812 129.363281 62.125 C 124.316406 65.445312 118.714844 70.007812 118.714844 70.007812 C 44.324219 134.84375 94.488281 213.769531 127.414062 248.792969 C 128.953125 250.425781 130.417969 251.964844 131.828125 253.390625 C 139.453125 262.050781 154.851562 282.816406 161.046875 315.261719 L 213.953125 315.261719 C 220.148438 282.816406 235.546875 262.050781 243.171875 253.390625 C 244.582031 251.964844 246.066406 250.425781 247.585938 248.792969 C 280.511719 213.769531 330.675781 134.84375 256.285156 70.007812 "/>
<path style="fill:none;stroke-width:40;stroke-linecap:round;stroke-linejoin:round;stroke:rgb(1.568604%,0.779724%,0%);stroke-opacity:1;stroke-miterlimit:10;" d="M 2496.795037 2784.892569 C 2496.795037 2784.892569 2466.599108 2809.500716 2439.393293 2827.409042 C 2326.105919 2902.20264 2220.293827 2927.590326 2125.999986 2925.904836 C 2031.790375 2927.590326 1925.894054 2902.20264 1812.60668 2827.409042 C 1785.400864 2809.500716 1755.204936 2784.892569 1755.204936 2784.892569 C 1354.1929 2435.19563 1624.608599 2009.504181 1802.099171 1820.602943 C 1810.395681 1811.79626 1818.292106 1803.495224 1825.893731 1795.805178 C 1866.997254 1749.09605 1950.004471 1637.095271 1983.401084 1462.099321 L 2268.598889 1462.099321 C 2301.995502 1637.095271 2385.002719 1749.09605 2426.106242 1795.805178 C 2433.707867 1803.495224 2441.709578 1811.79626 2449.900802 1820.602943 C 2627.391374 2009.504181 2897.807073 2435.19563 2496.795037 2784.892569 Z M 2496.795037 2784.892569 " transform="matrix(0.185507,0,0,-0.185406,-206.888332,586.343817)"/>
<path style="fill-rule:nonzero;fill:rgb(100%,87.449646%,9.01947%);fill-opacity:1;stroke-width:40;stroke-linecap:round;stroke-linejoin:round;stroke:rgb(1.568604%,0.779724%,0%);stroke-opacity:1;stroke-miterlimit:10;" d="M 1914.796945 2199.290302 C 1917.892344 2216.10306 1940.297133 2252.699251 1955.395097 2255.206417 C 1976.494344 2258.598465 1989.297081 2248.000949 2007.406215 2239.889531 C 2019.493009 2234.601308 2027.600005 2226.489889 2042.697969 2227.290497 C 2074.410011 2228.997055 2076.494667 2248.29591 2084.896463 2258.408847 C 2114.608078 2293.90947 2137.897266 2245.198823 2165.903253 2235.802219 C 2180.201046 2231.103917 2196.309753 2245.09348 2206.396119 2253.499859 C 2215.703372 2261.295248 2227.600652 2266.794157 2240.003303 2265.298285 C 2259.691722 2262.79112 2269.609632 2243.808294 2284.89711 2232.304828 C 2295.509905 2224.298753 2327.20089 2202.703418 2340.508998 2210.203847 " transform="matrix(0.185507,0,0,-0.185406,-206.888332,586.343817)"/>
<path style="fill-rule:nonzero;fill:rgb(100%,87.449646%,9.01947%);fill-opacity:1;stroke-width:40;stroke-linecap:round;stroke-linejoin:round;stroke:rgb(1.568604%,0.779724%,0%);stroke-opacity:1;stroke-miterlimit:10;" d="M 1891.99207 2278.992888 L 2097.193829 1549.196992 " transform="matrix(0.185507,0,0,-0.185406,-206.888332,586.343817)"/>
<path style="fill-rule:nonzero;fill:rgb(100%,87.449646%,9.01947%);fill-opacity:1;stroke-width:40;stroke-linecap:round;stroke-linejoin:round;stroke:rgb(1.568604%,0.779724%,0%);stroke-opacity:1;stroke-miterlimit:10;" d="M 2359.207732 2278.992888 L 2154.005973 1549.196992 " transform="matrix(0.185507,0,0,-0.185406,-206.888332,586.343817)"/>
<path style=" stroke:none;fill-rule:nonzero;fill:rgb(100%,87.449646%,9.01947%);fill-opacity:1;" d="M 215.472656 328.054688 C 215.472656 343.796875 202.914062 356.53125 187.425781 356.53125 C 171.9375 356.53125 159.394531 343.796875 159.394531 328.054688 C 159.394531 312.332031 171.9375 299.578125 187.425781 299.578125 C 202.914062 299.578125 215.472656 312.332031 215.472656 328.054688 "/>
<path style="fill:none;stroke-width:40;stroke-linecap:round;stroke-linejoin:round;stroke:rgb(1.568604%,0.779724%,0%);stroke-opacity:1;stroke-miterlimit:10;" d="M 2276.790114 1393.099594 C 2276.790114 1308.193059 2209.091432 1239.509361 2125.599901 1239.509361 C 2042.10837 1239.509361 1974.493916 1308.193059 1974.493916 1393.099594 C 1974.493916 1477.900785 2042.10837 1546.689827 2125.599901 1546.689827 C 2209.091432 1546.689827 2276.790114 1477.900785 2276.790114 1393.099594 Z M 2276.790114 1393.099594 " transform="matrix(0.185507,0,0,-0.185406,-206.888332,586.343817)"/>
<path style=" stroke:none;fill-rule:nonzero;fill:rgb(100%,87.449646%,9.01947%);fill-opacity:1;" d="M 236.363281 319.601562 C 236.363281 324.273438 232.839844 328.054688 228.496094 328.054688 L 147.355469 328.054688 C 143.015625 328.054688 139.507812 324.273438 139.507812 319.601562 C 139.507812 314.929688 143.015625 311.144531 147.355469 311.144531 L 228.496094 311.144531 C 232.839844 311.144531 236.363281 314.929688 236.363281 319.601562 "/>
<path style="fill:none;stroke-width:40;stroke-linecap:round;stroke-linejoin:round;stroke:rgb(1.568604%,0.779724%,0%);stroke-opacity:1;stroke-miterlimit:10;" d="M 2389.40366 1438.692085 C 2389.40366 1413.494017 2370.410126 1393.099594 2346.994595 1393.099594 L 1909.595833 1393.099594 C 1886.201359 1393.099594 1867.292054 1413.494017 1867.292054 1438.692085 C 1867.292054 1463.890154 1886.201359 1484.305646 1909.595833 1484.305646 L 2346.994595 1484.305646 C 2370.410126 1484.305646 2389.40366 1463.890154 2389.40366 1438.692085 Z M 2389.40366 1438.692085 " transform="matrix(0.185507,0,0,-0.185406,-206.888332,586.343817)"/>
<path style=" stroke:none;fill-rule:nonzero;fill:rgb(100%,87.449646%,9.01947%);fill-opacity:1;" d="M 236.363281 303.878906 C 236.363281 308.550781 232.839844 312.332031 228.496094 312.332031 L 147.355469 312.332031 C 143.015625 312.332031 139.507812 308.550781 139.507812 303.878906 C 139.507812 299.207031 143.015625 295.421875 147.355469 295.421875 L 228.496094 295.421875 C 232.839844 295.421875 236.363281 299.207031 236.363281 303.878906 "/>
<path style="fill:none;stroke-width:40;stroke-linecap:round;stroke-linejoin:round;stroke:rgb(1.568604%,0.779724%,0%);stroke-opacity:1;stroke-miterlimit:10;" d="M 2389.40366 1523.493277 C 2389.40366 1498.295209 2370.410126 1477.900785 2346.994595 1477.900785 L 1909.595833 1477.900785 C 1886.201359 1477.900785 1867.292054 1498.295209 1867.292054 1523.493277 C 1867.292054 1548.691345 1886.201359 1569.106837 1909.595833 1569.106837 L 2346.994595 1569.106837 C 2370.410126 1569.106837 2389.40366 1548.691345 2389.40366 1523.493277 Z M 2389.40366 1523.493277 " transform="matrix(0.185507,0,0,-0.185406,-206.888332,586.343817)"/>
<path style=" stroke:none;fill-rule:nonzero;fill:rgb(100%,87.449646%,9.01947%);fill-opacity:1;" d="M 236.363281 290.640625 C 236.363281 295.3125 232.839844 299.113281 228.496094 299.113281 L 147.355469 299.113281 C 143.015625 299.113281 139.507812 295.3125 139.507812 290.640625 C 139.507812 285.96875 143.015625 282.183594 147.355469 282.183594 L 228.496094 282.183594 C 232.839844 282.183594 236.363281 285.96875 236.363281 290.640625 "/>
<path style="fill:none;stroke-width:40;stroke-linecap:round;stroke-linejoin:round;stroke:rgb(1.568604%,0.779724%,0%);stroke-opacity:1;stroke-miterlimit:10;" d="M 2389.40366 1594.894827 C 2389.40366 1569.696759 2370.410126 1549.196992 2346.994595 1549.196992 L 1909.595833 1549.196992 C 1886.201359 1549.196992 1867.292054 1569.696759 1867.292054 1594.894827 C 1867.292054 1620.092895 1886.201359 1640.508387 1909.595833 1640.508387 L 2346.994595 1640.508387 C 2370.410126 1640.508387 2389.40366 1620.092895 2389.40366 1594.894827 Z M 2389.40366 1594.894827 " transform="matrix(0.185507,0,0,-0.185406,-206.888332,586.343817)"/>
<path style=" stroke:none;fill-rule:nonzero;fill:rgb(100%,87.449646%,9.01947%);fill-opacity:1;" d="M 236.363281 335.027344 C 236.363281 339.699219 232.839844 343.480469 228.496094 343.480469 L 147.355469 343.480469 C 143.015625 343.480469 139.507812 339.699219 139.507812 335.027344 C 139.507812 330.355469 143.015625 326.570312 147.355469 326.570312 L 228.496094 326.570312 C 232.839844 326.570312 236.363281 330.355469 236.363281 335.027344 "/>
<path style="fill:none;stroke-width:40;stroke-linecap:round;stroke-linejoin:round;stroke:rgb(1.568604%,0.779724%,0%);stroke-opacity:1;stroke-miterlimit:10;" d="M 2389.40366 1355.492109 C 2389.40366 1330.29404 2370.410126 1309.899617 2346.994595 1309.899617 L 1909.595833 1309.899617 C 1886.201359 1309.899617 1867.292054 1330.29404 1867.292054 1355.492109 C 1867.292054 1380.690177 1886.201359 1401.105669 1909.595833 1401.105669 L 2346.994595 1401.105669 C 2370.410126 1401.105669 2389.40366 1380.690177 2389.40366 1355.492109 Z M 2389.40366 1355.492109 " transform="matrix(0.185507,0,0,-0.185406,-206.888332,586.343817)"/>
<path style="fill:none;stroke-width:40;stroke-linecap:round;stroke-linejoin:round;stroke:rgb(1.568604%,0.779724%,0%);stroke-opacity:1;stroke-miterlimit:10;" d="M 2002.205103 1477.900785 L 2248.994699 1477.900785 " transform="matrix(0.185507,0,0,-0.185406,-206.888332,586.343817)"/>
<path style=" stroke:none;fill-rule:nonzero;fill:rgb(100%,87.449646%,9.01947%);fill-opacity:1;" d="M 356.460938 288.265625 C 356.460938 304.191406 345.90625 322.511719 332.863281 322.511719 C 319.824219 322.511719 309.25 304.191406 309.25 288.265625 C 309.25 272.359375 319.824219 259.453125 332.863281 259.453125 C 345.90625 259.453125 356.460938 272.359375 356.460938 288.265625 "/>
<path style="fill:none;stroke-width:40;stroke-linecap:round;stroke-linejoin:round;stroke:rgb(1.568604%,0.779724%,0%);stroke-opacity:1;stroke-miterlimit:10;" d="M 3036.805206 1607.704547 C 3036.805206 1521.807787 2979.908833 1422.995964 2909.599067 1422.995964 C 2839.310358 1422.995964 2782.3087 1521.807787 2782.3087 1607.704547 C 2782.3087 1693.495964 2839.310358 1763.106682 2909.599067 1763.106682 C 2979.908833 1763.106682 3036.805206 1693.495964 3036.805206 1607.704547 Z M 3036.805206 1607.704547 " transform="matrix(0.185507,0,0,-0.185406,-206.888332,586.343817)"/>
<path style=" stroke:none;fill-rule:nonzero;fill:rgb(100%,87.449646%,9.01947%);fill-opacity:1;" d="M 352.636719 325.550781 C 344.753906 329.019531 337.371094 329.722656 332.9375 329.761719 L 332.808594 329.761719 C 328.355469 329.722656 320.972656 329.019531 313.089844 325.550781 C 305.113281 322.046875 295.296875 329.890625 294.910156 344.5 L 294.910156 371.070312 L 370.800781 371.070312 L 370.800781 344.5 C 370.429688 329.890625 360.597656 322.046875 352.636719 325.550781 "/>
<g clip-path="url(#clip2)" clip-rule="nonzero">
<path style="fill:none;stroke-width:40;stroke-linecap:round;stroke-linejoin:round;stroke:rgb(1.568604%,0.779724%,0%);stroke-opacity:1;stroke-miterlimit:10;" d="M 3016.190273 1406.604578 C 2973.696979 1387.895645 2933.898998 1384.103293 2909.999153 1383.892607 L 2909.304267 1383.892607 C 2885.299136 1384.103293 2845.501155 1387.895645 2803.007861 1406.604578 C 2760.009196 1425.50313 2707.092622 1383.197343 2705.007965 1304.400707 L 2705.007965 1161.09196 L 3114.10594 1161.09196 L 3114.10594 1304.400707 C 3112.105513 1383.197343 3059.104709 1425.50313 3016.190273 1406.604578 Z M 3016.190273 1406.604578 " transform="matrix(0.185507,0,0,-0.185406,-206.888332,586.343817)"/>
</g>
<path style=" stroke:none;fill-rule:nonzero;fill:rgb(100%,87.449646%,9.01947%);fill-opacity:1;" d="M 65.734375 288.265625 C 65.734375 304.191406 55.175781 322.511719 42.136719 322.511719 C 29.09375 322.511719 18.539062 304.191406 18.539062 288.265625 C 18.539062 272.359375 29.09375 259.453125 42.136719 259.453125 C 55.175781 259.453125 65.734375 272.359375 65.734375 288.265625 "/>
<path style="fill:none;stroke-width:40;stroke-linecap:round;stroke-linejoin:round;stroke:rgb(1.568604%,0.779724%,0%);stroke-opacity:1;stroke-miterlimit:10;" d="M 1469.607045 1607.704547 C 1469.607045 1521.807787 1412.689615 1422.995964 1342.400906 1422.995964 C 1272.09114 1422.995964 1215.194767 1521.807787 1215.194767 1607.704547 C 1215.194767 1693.495964 1272.09114 1763.106682 1342.400906 1763.106682 C 1412.689615 1763.106682 1469.607045 1693.495964 1469.607045 1607.704547 Z M 1469.607045 1607.704547 " transform="matrix(0.185507,0,0,-0.185406,-206.888332,586.343817)"/>
<path style=" stroke:none;fill-rule:nonzero;fill:rgb(100%,87.449646%,9.01947%);fill-opacity:1;" d="M 61.910156 325.550781 C 54.027344 329.019531 46.644531 329.722656 42.210938 329.761719 L 42.0625 329.761719 C 37.628906 329.722656 30.246094 329.019531 22.378906 325.550781 C 14.402344 322.046875 4.570312 329.890625 4.199219 344.5 L 4.199219 371.070312 L 80.089844 371.070312 L 80.089844 344.5 C 79.703125 329.890625 69.886719 322.046875 61.910156 325.550781 "/>
<g clip-path="url(#clip3)" clip-rule="nonzero">
<path style="fill:none;stroke-width:40;stroke-linecap:round;stroke-linejoin:round;stroke:rgb(1.568604%,0.779724%,0%);stroke-opacity:1;stroke-miterlimit:10;" d="M 1448.992112 1406.604578 C 1406.498818 1387.895645 1366.700837 1384.103293 1342.800991 1383.892607 L 1342.00082 1383.892607 C 1318.100975 1384.103293 1278.302994 1387.895645 1235.893928 1406.604578 C 1192.895263 1425.50313 1139.89446 1383.197343 1137.894033 1304.400707 L 1137.894033 1161.09196 L 1546.992008 1161.09196 L 1546.992008 1304.400707 C 1544.907351 1383.197343 1491.990777 1425.50313 1448.992112 1406.604578 Z M 1448.992112 1406.604578 " transform="matrix(0.185507,0,0,-0.185406,-206.888332,586.343817)"/>
</g>
<path style="fill:none;stroke-width:40;stroke-linecap:round;stroke-linejoin:round;stroke:rgb(1.568604%,0.779724%,0%);stroke-opacity:1;stroke-miterlimit:10;" d="M 1181.103269 2094.305373 L 1275.207595 1930.897164 L 1360.194183 2102.606409 " transform="matrix(0.185507,0,0,-0.185406,-206.888332,586.343817)"/>
<path style="fill:none;stroke-width:40;stroke-linecap:round;stroke-linejoin:round;stroke:rgb(1.568604%,0.779724%,0%);stroke-opacity:1;stroke-miterlimit:10;" d="M 2885.19385 2094.305373 L 2979.298176 1930.897164 L 3064.39005 2102.606409 " transform="matrix(0.185507,0,0,-0.185406,-206.888332,586.343817)"/>
</g>
</svg>
